<?xml version="1.0" encoding="utf-8"?>
<!-- Generator: Adobe Illustrator 28.2.0, SVG Export Plug-In . SVG Version: 6.00 Build 0)  -->
<svg version="1.1" id="Layer_1" xmlns="http://www.w3.org/2000/svg" xmlns:xlink="http://www.w3.org/1999/xlink" x="0px" y="0px"
	 viewBox="170 358 720 362" style="enable-background:new 0 0 1080 1080;" xml:space="preserve">
<style type="text/css">
	.st0{fill:#595496;}
	.st1{fill:#EB5C77;}
</style>
<g>
	<g>
		<g>
			<g>
				<g>
					<g>
						<path class="st0" d="M244.43,603.6l-9.28,11.81c-4.03-3.03-9.2-4.55-15.5-4.56c-2.52,0-4.65,0.4-6.38,1.22
							c-1.74,0.82-2.6,2.05-2.6,3.68c0,2.08,0.85,3.49,2.55,4.21c1.7,0.73,4.51,1.28,8.41,1.67c3.59,0.38,6.87,1.04,9.83,1.95
							c2.96,0.92,5.78,2.2,8.46,3.84c2.68,1.64,4.77,3.84,6.28,6.58c1.51,2.74,2.26,5.95,2.25,9.6c-0.01,4.79-1.43,8.85-4.27,12.19
							c-2.84,3.34-6.39,5.71-10.65,7.12c-4.26,1.41-8.97,2.14-14.14,2.2c-6.43,0.05-11.88-0.73-16.35-2.34
							c-4.47-1.61-8.88-4.72-13.22-9.33l10.32-11.8c5.1,4.99,11.55,7.49,19.37,7.5c3.15,0,5.67-0.51,7.57-1.55
							c1.89-1.04,2.84-2.47,2.84-4.3c0-3.34-3.68-5.36-11.05-6.07c-4.03-0.38-7.5-0.94-10.4-1.67c-2.9-0.73-5.69-1.85-8.36-3.37
							c-2.68-1.52-4.71-3.65-6.09-6.39c-1.38-2.74-2.07-6.1-2.07-10.07c0.01-6.55,2.71-11.53,8.11-14.93
							c5.39-3.4,11.93-5.09,19.63-5.08C229.5,595.73,237.75,598.36,244.43,603.6z"/>
						<path class="st0" d="M308.38,642.46l10.95,12.31c-6.94,6.86-15.8,10.28-26.58,10.27c-6.3-0.01-11.83-0.95-16.59-2.81
							c-4.76-1.86-8.52-4.42-11.29-7.67c-2.77-3.25-4.85-6.88-6.22-10.88c-1.38-4-2.07-8.34-2.06-13c0.01-4.35,0.75-8.57,2.24-12.67
							c1.49-4.09,3.65-7.83,6.49-11.19c2.84-3.37,6.64-6.07,11.41-8.12c4.76-2.04,10.14-3.06,16.12-3.05
							c9.83,0.01,18.37,3.56,25.61,10.63l-11.55,11.33c-4.03-3.85-8.72-5.78-14.08-5.79c-5.86-0.01-10.29,1.92-13.29,5.8
							c-3,3.87-4.47,8.27-4.42,13.18c0.05,4.98,1.51,9.28,4.38,12.91c2.86,3.63,7.29,5.45,13.28,5.46c2.46,0,5.12-0.54,7.99-1.64
							C303.63,646.41,306.17,644.72,308.38,642.46z"/>
						<path class="st0" d="M391.08,662.34l0,1.13l-20.61-0.03l-15.38-21.48l-6.52-0.01l-0.03,21.46l-18.72-0.03l0.1-66.18
							l32.34,0.05c8.07,0.01,14.37,2.23,18.9,6.65c4.53,4.42,6.79,9.81,6.79,16.18c-0.01,4.48-1.04,8.34-3.09,11.58
							c-2.05,3.24-5.7,6.03-10.93,8.35L391.08,662.34z M362.22,612.18l-13.61-0.02l-0.02,15.88l13.8,0.02c2.33,0,4.1-0.73,5.3-2.21
							c1.2-1.48,1.8-3.29,1.8-5.43c0-2.27-0.63-4.21-1.88-5.82C366.35,612.99,364.55,612.19,362.22,612.18z"/>
						<path class="st0" d="M455.3,647.77l-0.02,15.79l-52.95-0.08l0.1-66.18l51.62,0.07l-0.02,15.69l-33.19-0.05l-0.01,9.45
							l31.3,0.05l-0.02,15.22l-31.3-0.05l-0.01,10.02L455.3,647.77z"/>
						<path class="st0" d="M521.67,647.87l-0.02,15.79l-52.95-0.08l0.1-66.18l51.62,0.07l-0.02,15.69l-33.19-0.05l-0.01,9.45
							l31.3,0.05l-0.02,15.22l-31.3-0.05l-0.01,10.02L521.67,647.87z"/>
						<path class="st0" d="M551.06,597.52l27.93,36.25c-0.12-1.95-0.31-6.46-0.55-13.52l0.03-22.69l18.81,0.03l-0.1,66.18
							l-15.88-0.02l-27.56-35.68l0.26,14.47l-0.03,21.18l-18.91-0.03l0.1-66.18L551.06,597.52z"/>
						<path class="st0" d="M663.56,604.2l-9.28,11.8c-4.03-3.03-9.2-4.55-15.5-4.56c-2.52,0-4.65,0.4-6.38,1.22
							c-1.74,0.82-2.6,2.04-2.6,3.68c0,2.08,0.85,3.48,2.55,4.21c1.7,0.73,4.51,1.28,8.41,1.67c3.59,0.38,6.87,1.03,9.83,1.95
							c2.96,0.92,5.78,2.2,8.46,3.84c2.68,1.64,4.77,3.84,6.28,6.58c1.51,2.74,2.26,5.94,2.25,9.6c-0.01,4.79-1.43,8.85-4.27,12.19
							c-2.84,3.34-6.39,5.71-10.65,7.12c-4.26,1.41-8.97,2.15-14.14,2.2c-6.43,0.05-11.88-0.73-16.35-2.34
							c-4.47-1.61-8.88-4.72-13.22-9.33l10.32-11.8c5.1,4.99,11.55,7.49,19.37,7.5c3.15,0,5.67-0.51,7.57-1.55
							c1.89-1.04,2.84-2.47,2.84-4.3c0-3.34-3.68-5.36-11.05-6.07c-4.03-0.38-7.5-0.94-10.4-1.67c-2.9-0.73-5.69-1.85-8.36-3.37
							c-2.68-1.52-4.71-3.65-6.09-6.39c-1.38-2.74-2.07-6.1-2.07-10.07c0.01-6.55,2.71-11.53,8.11-14.93
							c5.39-3.4,11.93-5.09,19.63-5.08C648.63,596.33,656.88,598.96,663.56,604.2z"/>
						<path class="st0" d="M740.34,664.07l-18.53-0.03l0.04-25.06l-23.83-0.03l-0.04,25.06l-18.72-0.03l0.1-66.18l18.72,0.03
							l-0.04,25.15l23.83,0.03l0.04-25.15l18.53,0.03L740.34,664.07z"/>
						<path class="st0" d="M816.49,605.51c6.7,6.15,10.05,14.65,10.03,25.49c-0.01,10.84-3.38,19.33-10.11,25.47
							s-15.63,9.2-26.72,9.18c-11.03-0.02-19.91-3.1-26.65-9.26c-6.74-6.16-10.1-14.65-10.08-25.5c0.02-10.71,3.42-19.17,10.2-25.37
							c6.78-6.2,15.66-9.29,26.63-9.27C800.88,596.27,809.78,599.35,816.49,605.51z M807.8,630.98c0.01-5.67-1.63-10.21-4.9-13.62
							c-3.27-3.41-7.65-5.12-13.14-5.12c-5.36-0.01-9.71,1.74-13.05,5.23c-3.35,3.49-5.02,7.98-5.03,13.47
							c-0.01,5.55,1.67,10.06,5.04,13.53c3.37,3.47,7.7,5.21,12.99,5.22c5.42,0.01,9.79-1.72,13.1-5.18
							C806.13,641.03,807.79,636.53,807.8,630.98z"/>
						<path class="st0" d="M852.09,664.13l0.07-50.77l-19.29-0.03l0.02-15.41l57.3,0.08l-0.02,15.41l-19.38-0.03l-0.07,50.77
							L852.09,664.13z"/>
					</g>
					<g>
						<path class="st1" d="M299.02,719.2h-8.75v-31.08h8.75V719.2z"/>
						<path class="st1" d="M331.88,688.12l13.14,17.01c-0.06-0.92-0.15-3.03-0.27-6.35v-10.66h8.84v31.08h-7.46l-12.97-16.74
							l0.13,6.79v9.95h-8.88v-31.08H331.88z"/>
						<path class="st1" d="M385.57,719.2v-23.84h-9.06v-7.24h26.91v7.24h-9.1v23.84H385.57z"/>
						<path class="st1" d="M451.19,711.79v7.42h-24.87v-31.08h24.24v7.37h-15.59v4.44h14.7v7.15h-14.7v4.71H451.19z"/>
						<path class="st1" d="M504.03,718.67v0.53h-9.68l-7.24-10.08h-3.06v10.08h-8.79v-31.08h15.19c3.79,0,6.75,1.04,8.88,3.11
							c2.13,2.07,3.2,4.6,3.2,7.59c0,2.1-0.48,3.92-1.44,5.44c-0.96,1.53-2.67,2.83-5.13,3.93L504.03,718.67z M490.45,695.13h-6.39
							v7.46h6.48c1.1,0,1.92-0.35,2.49-1.04c0.56-0.7,0.84-1.55,0.84-2.55c0-1.07-0.3-1.98-0.89-2.73
							C492.38,695.51,491.54,695.13,490.45,695.13z"/>
						<path class="st1" d="M550.57,719.2l-2.04-5.11h-13.9l-2.04,5.11h-9.33l13.94-31.08h8.88l13.9,31.08H550.57z M545.55,706.72
							l-3.95-9.9l-4,9.9H545.55z"/>
						<path class="st1" d="M603.19,709.39l5.15,5.77c-3.26,3.23-7.42,4.84-12.48,4.84c-2.96,0-5.56-0.44-7.79-1.31
							c-2.24-0.87-4-2.07-5.31-3.6c-1.3-1.52-2.28-3.23-2.93-5.11c-0.65-1.88-0.98-3.91-0.98-6.11c0-2.04,0.35-4.03,1.04-5.95
							c0.7-1.92,1.71-3.68,3.04-5.26c1.33-1.58,3.12-2.86,5.35-3.82c2.23-0.96,4.76-1.44,7.57-1.44c4.62,0,8.63,1.66,12.03,4.97
							l-5.42,5.33c-1.89-1.8-4.1-2.71-6.62-2.71c-2.75,0-4.83,0.91-6.24,2.73c-1.41,1.82-2.09,3.89-2.06,6.19
							c0.03,2.34,0.72,4.36,2.06,6.06c1.35,1.7,3.43,2.55,6.24,2.55c1.15,0,2.4-0.26,3.75-0.78
							C600.96,711.25,602.15,710.45,603.19,709.39z"/>
						<path class="st1" d="M637.6,719.2v-23.84h-9.06v-7.24h26.91v7.24h-9.1v23.84H637.6z"/>
						<path class="st1" d="M687.11,719.2h-8.75v-31.08h8.75V719.2z"/>
						<path class="st1" d="M743.19,688.12l-12.92,31.22h-8.57l-12.92-31.22h9.72l3.55,9.32l3.91,11.5l3.95-11.5l3.55-9.32H743.19z"
							/>
						<path class="st1" d="M789.73,711.79v7.42h-24.87v-31.08h24.24v7.37h-15.59v4.44h14.7v7.15h-14.7v4.71H789.73z"/>
					</g>
				</g>
			</g>
		</g>
	</g>
	<g>
		<g>
			<g>
				<path class="st1" d="M637.25,431.68l-9.51,3.41c2.49,8.16,3.86,16.8,3.95,25.74l10.09,0.49
					C641.73,451,640.16,441.05,637.25,431.68z"/>
				<path class="st1" d="M619.47,398.28l-7.44,6.84c4.92,6.24,9.06,13.12,12.24,20.5l9.52-3.41
					C630.12,413.55,625.27,405.52,619.47,398.28z"/>
				<path class="st0" d="M631.26,470.89c-4.58,46.31-43.76,82.61-91.26,82.61c-50.57,0-91.71-41.14-91.71-91.71
					s41.14-91.71,91.71-91.71c13.59,0,26.49,3,38.1,8.32l5.07-8.76c-13.12-6.17-27.75-9.64-43.18-9.64
					c-56.13,0-101.79,45.66-101.79,101.79s45.66,101.79,101.79,101.79c52.89,0,96.47-40.56,101.32-92.2L631.26,470.89z"/>
				<path class="st1" d="M587.04,383.09c6.72,4.03,12.87,8.9,18.33,14.45l7.42-6.82c-6.15-6.3-13.1-11.81-20.7-16.35L587.04,383.09z
					"/>
			</g>
		</g>
		<g>
			<path class="st0" d="M585.76,414.18l-16.79,20.95c-7.31-5.36-16.68-8.05-28.1-8.05c-4.57,0-8.43,0.73-11.57,2.18
				c-3.14,1.45-4.71,3.63-4.71,6.54c0,3.69,1.54,6.18,4.63,7.46c3.09,1.29,8.17,2.26,15.25,2.93c6.51,0.67,12.45,1.82,17.82,3.44
				c5.37,1.62,10.48,3.88,15.34,6.79c4.86,2.91,8.65,6.79,11.39,11.65c2.74,4.86,4.11,10.53,4.11,17.01c0,8.49-2.57,15.7-7.71,21.62
				c-5.14,5.92-11.57,10.14-19.28,12.66c-7.71,2.51-16.25,3.83-25.62,3.94c-11.65,0.11-21.54-1.26-29.65-4.11
				c-8.11-2.85-16.11-8.35-23.99-16.51l18.68-20.95c9.25,8.83,20.96,13.24,35.13,13.24c5.71,0,10.28-0.92,13.71-2.77
				c3.43-1.84,5.14-4.38,5.14-7.63c0-5.92-6.68-9.5-20.05-10.73c-7.31-0.67-13.6-1.65-18.85-2.93c-5.26-1.28-10.31-3.27-15.17-5.95
				c-4.86-2.68-8.54-6.45-11.05-11.32c-2.52-4.86-3.77-10.81-3.77-17.85c0-11.62,4.88-20.45,14.65-26.49
				c9.77-6.03,21.62-9.05,35.56-9.05C558.68,400.27,573.65,404.9,585.76,414.18z"/>
		</g>
	</g>
</g>
</svg>
