<svg xmlns="http://www.w3.org/2000/svg" viewBox="0 0 200 200">
  <!-- Outer dashed ring (open at upper right ~30deg) -->
  <path d="M 100,12 A 88,88 0 1,1 99.99,12" fill="none" stroke="black" stroke-width="11" stroke-dasharray="180 25 90 0" stroke-linecap="round" transform="rotate(-50 100 100)"/>
  <!-- The S shape -->
  <path fill="black" d="M 130,73
    c -6,-7 -16,-11 -28,-11
    c -16,0 -27,8 -27,21
    c 0,11 8,16 25,18
    l 8,1
    c 16,2 25,7 25,20
    c 0,14 -14,22 -32,22
    c -14,0 -25,-3 -33,-12
    l 9,-9
    c 6,7 14,10 24,10
    c 11,0 19,-4 19,-11
    c 0,-7 -5,-10 -19,-12
    l -8,-1
    c -16,-2 -25,-9 -25,-22
    c 0,-14 13,-22 30,-22
    c 13,0 23,4 30,11 z"/>
</svg>
